<svg width="41" height="44" viewBox="0 0 41 44" fill="none" xmlns="http://www.w3.org/2000/svg">
<g filter="url(#filter0_d_5033_1858)">
<path fill-rule="evenodd" clip-rule="evenodd" d="M36.7839 2.57291C34.751 5.02156 33.6462 8.46279 32.5096 12.0015C29.5964 21.0726 26.4887 30.7434 7.94047 28.7277C7.10791 30.548 6.3478 32.6251 5.70611 35.0054C5.4056 36.1221 3.73689 35.6589 4.03565 34.5441C4.73919 31.9356 5.57886 29.6717 6.49804 27.6987C5.43387 23.7367 5.19349 20.2288 5.62303 17.1644C6.76317 9.0249 12.5911 4.08265 20.0881 1.93368C24.9564 0.538789 30.5954 0.296456 36.2569 1.11509C36.9499 1.21562 37.2311 2.06305 36.7839 2.57291ZM7.71796 25.3236C11.0059 19.4981 14.9426 16.7048 17.4614 14.9184C18.3576 14.2811 19.2502 13.3135 19.906 14.1859C21.3555 16.1158 14.163 16.8034 8.76977 27.0379C25.3509 28.5997 28.195 19.7583 30.8604 11.4575C31.8768 8.29073 32.8703 5.19762 34.546 2.6718C19.3049 0.978921 4.01628 7.34465 7.71796 25.3236Z" fill="#14FF5A"/>
</g>
<defs>
<filter id="filter0_d_5033_1858" x="0" y="0.646484" width="41" height="43" filterUnits="userSpaceOnUse" color-interpolation-filters="sRGB">
<feFlood flood-opacity="0" result="BackgroundImageFix"/>
<feColorMatrix in="SourceAlpha" type="matrix" values="0 0 0 0 0 0 0 0 0 0 0 0 0 0 0 0 0 0 127 0" result="hardAlpha"/>
<feOffset dy="4"/>
<feGaussianBlur stdDeviation="2"/>
<feComposite in2="hardAlpha" operator="out"/>
<feColorMatrix type="matrix" values="0 0 0 0 0 0 0 0 0 0 0 0 0 0 0 0 0 0 0.25 0"/>
<feBlend mode="normal" in2="BackgroundImageFix" result="effect1_dropShadow_5033_1858"/>
<feBlend mode="normal" in="SourceGraphic" in2="effect1_dropShadow_5033_1858" result="shape"/>
</filter>
</defs>
</svg>
