<svg width="39" height="25" viewBox="0 0 39 25" fill="none" xmlns="http://www.w3.org/2000/svg">
<path fill-rule="evenodd" clip-rule="evenodd" d="M16.8045 0.646484C17.5486 0.646484 18.1524 1.24373 18.1524 1.97982V23.3132C18.1524 24.0492 17.5486 24.6465 16.8045 24.6465C16.0604 24.6465 15.4567 24.0492 15.4567 23.3132V1.97982C15.4567 1.24373 16.0604 0.646484 16.8045 0.646484ZM27.2274 1.80795C27.9733 1.80795 28.5753 2.4052 28.5753 3.14128V22.1515C28.5753 22.8876 27.9733 23.4848 27.2274 23.4848C26.4833 23.4848 25.8796 22.8876 25.8796 22.1515V3.14128C25.8796 2.4052 26.4833 1.80795 27.2274 1.80795ZM22.0167 3.584C22.7608 3.584 23.3645 4.18124 23.3645 4.91733V20.3756C23.3645 21.1116 22.7608 21.7089 22.0167 21.7089C21.2726 21.7089 20.6688 21.1116 20.6688 20.3756V4.91733C20.6688 4.18124 21.2726 3.584 22.0167 3.584ZM11.5937 7.1552C12.3378 7.1552 12.9416 7.75244 12.9416 8.48853V15.5721C12.9416 16.3082 12.3378 16.9054 11.5937 16.9054C10.8478 16.9054 10.2459 16.3082 10.2459 15.5721V8.48853C10.2459 7.75244 10.8478 7.1552 11.5937 7.1552ZM32.4396 4.4052C33.1837 4.4052 33.7874 5.00244 33.7874 5.73853V18.3216C33.7874 19.0577 33.1837 19.655 32.4396 19.655C31.6955 19.655 31.0917 19.0577 31.0917 18.3216V5.73853C31.0917 5.00244 31.6955 4.4052 32.4396 4.4052ZM6.38116 5.28022C7.12527 5.28022 7.72901 5.87746 7.72901 6.61355V17.4469C7.72901 18.183 7.12527 18.7802 6.38116 18.7802C5.63706 18.7802 5.03332 18.183 5.03332 17.4469V6.61355C5.03332 5.87746 5.63706 5.28022 6.38116 5.28022ZM37.6522 8.84271C38.3963 8.84271 39 9.43995 39 10.176V13.8844C39 14.6205 38.3963 15.2177 37.6522 15.2177C36.9063 15.2177 36.3043 14.6205 36.3043 13.8844V10.176C36.3043 9.43995 36.9063 8.84271 37.6522 8.84271ZM1.34785 8.84271C2.09375 8.84271 2.6957 9.43995 2.6957 10.176V13.8844C2.6957 14.6205 2.09375 15.2177 1.34785 15.2177C0.603746 15.2177 0 14.6205 0 13.8844V10.176C0 9.43995 0.603746 8.84271 1.34785 8.84271Z" fill="#14FF5A"/>
</svg>
