<svg width="35" height="36" viewBox="0 0 35 36" fill="none" xmlns="http://www.w3.org/2000/svg">
<path d="M2.91797 9.39681C3.79297 10.126 4.66797 10.8551 6.5638 10.8551C10.2096 10.8551 10.2096 7.93848 13.8555 7.93848C17.6471 7.93848 17.3555 10.8551 21.1471 10.8551C24.793 10.8551 24.793 7.93848 28.4388 7.93848C30.3346 7.93848 31.2096 8.66764 32.0846 9.39681M2.91797 18.1468C3.79297 18.876 4.66797 19.6051 6.5638 19.6051C10.2096 19.6051 10.2096 16.6885 13.8555 16.6885C17.6471 16.6885 17.3555 19.6051 21.1471 19.6051C24.793 19.6051 24.793 16.6885 28.4388 16.6885C30.3346 16.6885 31.2096 17.4176 32.0846 18.1468M2.91797 26.8968C3.79297 27.626 4.66797 28.3551 6.5638 28.3551C10.2096 28.3551 10.2096 25.4385 13.8555 25.4385C17.6471 25.4385 17.3555 28.3551 21.1471 28.3551C24.793 28.3551 24.793 25.4385 28.4388 25.4385C30.3346 25.4385 31.2096 26.1676 32.0846 26.8968" stroke="#14FF5A" stroke-width="2" stroke-linecap="round" stroke-linejoin="round"/>
</svg>
