<svg width="121" height="196" viewBox="0 0 121 196" fill="none" xmlns="http://www.w3.org/2000/svg">
<rect x="0.5" y="0.5" width="20" height="20" stroke="#D0D0D0" stroke-opacity="0.33"/>
<rect y="100" width="21" height="21" fill="white"/>
<rect x="0.5" y="100.5" width="20" height="20" stroke="#D0D0D0" stroke-opacity="0.33"/>
<rect x="25" width="21" height="21" fill="white"/>
<rect x="25.5" y="0.5" width="20" height="20" stroke="#D0D0D0" stroke-opacity="0.33"/>
<rect x="25.5" y="100.5" width="20" height="20" stroke="#D0D0D0" stroke-opacity="0.33"/>
<rect x="50" width="21" height="21" fill="white"/>
<rect x="50.5" y="0.5" width="20" height="20" stroke="#D0D0D0" stroke-opacity="0.33"/>
<rect x="50" y="100" width="21" height="21" fill="white"/>
<rect x="50.5" y="100.5" width="20" height="20" stroke="#D0D0D0" stroke-opacity="0.33"/>
<rect x="75" width="21" height="21" fill="white"/>
<rect x="75.5" y="0.5" width="20" height="20" stroke="#D0D0D0" stroke-opacity="0.33"/>
<rect x="75.5" y="100.5" width="20" height="20" stroke="#D0D0D0" stroke-opacity="0.33"/>
<rect x="100.5" y="0.5" width="20" height="20" stroke="#D0D0D0" stroke-opacity="0.33"/>
<rect x="100" y="100" width="21" height="21" fill="white"/>
<rect x="100.5" y="100.5" width="20" height="20" stroke="#D0D0D0" stroke-opacity="0.33"/>
<rect y="25" width="21" height="21" fill="white"/>
<rect x="0.5" y="25.5" width="20" height="20" stroke="#D0D0D0" stroke-opacity="0.33"/>
<rect y="125" width="21" height="21" fill="white"/>
<rect x="0.5" y="125.5" width="20" height="20" stroke="#D0D0D0" stroke-opacity="0.33"/>
<rect x="25.5" y="25.5" width="20" height="20" stroke="#D0D0D0" stroke-opacity="0.33"/>
<rect x="25" y="125" width="21" height="21" fill="white"/>
<rect x="25.5" y="125.5" width="20" height="20" stroke="#D0D0D0" stroke-opacity="0.33"/>
<rect x="50.5" y="25.5" width="20" height="20" stroke="#D0D0D0" stroke-opacity="0.33"/>
<rect x="50.5" y="125.5" width="20" height="20" stroke="#D0D0D0" stroke-opacity="0.33"/>
<rect x="75.5" y="25.5" width="20" height="20" stroke="#D0D0D0" stroke-opacity="0.33"/>
<rect x="75.5" y="125.5" width="20" height="20" stroke="#D0D0D0" stroke-opacity="0.33"/>
<rect x="100" y="25" width="21" height="21" fill="white"/>
<rect x="100.5" y="25.5" width="20" height="20" stroke="#D0D0D0" stroke-opacity="0.33"/>
<rect x="100" y="125" width="21" height="21" fill="white"/>
<rect x="100.5" y="125.5" width="20" height="20" stroke="#D0D0D0" stroke-opacity="0.33"/>
<rect y="50" width="21" height="21" fill="white"/>
<rect x="0.5" y="50.5" width="20" height="20" stroke="#D0D0D0" stroke-opacity="0.33"/>
<rect y="150" width="21" height="21" fill="white"/>
<rect x="0.5" y="150.5" width="20" height="20" stroke="#D0D0D0" stroke-opacity="0.33"/>
<rect x="25.5" y="50.5" width="20" height="20" stroke="#D0D0D0" stroke-opacity="0.33"/>
<rect x="25.5" y="150.5" width="20" height="20" stroke="#D0D0D0" stroke-opacity="0.33"/>
<rect x="50.5" y="50.5" width="20" height="20" stroke="#D0D0D0" stroke-opacity="0.33"/>
<rect x="50.5" y="150.5" width="20" height="20" stroke="#D0D0D0" stroke-opacity="0.33"/>
<rect x="75.5" y="50.5" width="20" height="20" stroke="#D0D0D0" stroke-opacity="0.33"/>
<rect x="75.5" y="150.5" width="20" height="20" stroke="#D0D0D0" stroke-opacity="0.33"/>
<rect x="100" y="50" width="21" height="21" fill="white"/>
<rect x="100.5" y="50.5" width="20" height="20" stroke="#D0D0D0" stroke-opacity="0.33"/>
<rect x="100" y="150" width="21" height="21" fill="white"/>
<rect x="100.5" y="150.5" width="20" height="20" stroke="#D0D0D0" stroke-opacity="0.33"/>
<rect y="75" width="21" height="21" fill="white"/>
<rect x="0.5" y="75.5" width="20" height="20" stroke="#D0D0D0" stroke-opacity="0.33"/>
<rect x="0.5" y="175.5" width="20" height="20" stroke="#D0D0D0" stroke-opacity="0.33"/>
<rect x="25.5" y="75.5" width="20" height="20" stroke="#D0D0D0" stroke-opacity="0.33"/>
<rect x="25" y="175" width="21" height="21" fill="white"/>
<rect x="25.5" y="175.5" width="20" height="20" stroke="#D0D0D0" stroke-opacity="0.33"/>
<rect x="50.5" y="75.5" width="20" height="20" stroke="#D0D0D0" stroke-opacity="0.33"/>
<rect x="50" y="175" width="21" height="21" fill="white"/>
<rect x="50.5" y="175.5" width="20" height="20" stroke="#D0D0D0" stroke-opacity="0.33"/>
<rect x="75" y="75" width="21" height="21" fill="white"/>
<rect x="75.5" y="75.5" width="20" height="20" stroke="#D0D0D0" stroke-opacity="0.33"/>
<rect x="75" y="175" width="21" height="21" fill="white"/>
<rect x="75.5" y="175.5" width="20" height="20" stroke="#D0D0D0" stroke-opacity="0.33"/>
<rect x="100" y="75" width="21" height="21" fill="white"/>
<rect x="100.5" y="75.5" width="20" height="20" stroke="#D0D0D0" stroke-opacity="0.33"/>
<rect x="100.5" y="175.5" width="20" height="20" stroke="#D0D0D0" stroke-opacity="0.33"/>
</svg>
