<?xml version="1.0" encoding="UTF-8"?>
<svg width="120" height="42" viewBox="0 0 120 42" fill="none" xmlns="http://www.w3.org/2000/svg">
<path d="M85.9502 11.3648L85.601 12.3713L77.5371 35.5799L69.4678 12.3335C69.2661 11.7537 68.7206 11.3648 68.1067 11.3648H57.263V9.7247C57.263 8.02874 57.6339 6.8459 58.3756 6.17436C59.1174 5.46861 60.4065 5.11394 62.2429 5.11394V0.0800781C58.4279 0.0800781 55.6193 0.857841 53.8189 2.41157C52.0527 3.93109 51.1705 6.367 51.1705 9.7229V11.363H47.7264C45.7136 11.363 43.9654 11.7357 42.4819 12.5837C41.0344 13.3957 39.8678 14.5443 38.9856 16.0278V11.363H32.9453V41.0801H38.9856V25.6166C38.9856 22.6496 39.5869 20.5648 40.7878 19.3639C42.0246 18.1631 43.825 17.1675 46.1925 17.1675H51.1723V41.0783H57.2648V17.1675H63.856C64.4537 17.1675 64.9902 17.5383 65.2027 18.0965L73.7905 40.738L73.9201 41.0783H81.0514L81.2044 40.6786L91.9419 12.5081L92.3632 11.363H85.952L85.9502 11.3648Z" fill="white"/>
<path d="M119.046 25.5285C119.046 22.7451 118.455 20.293 117.272 18.1722C116.09 16.0153 114.437 14.3464 112.316 13.1635C110.195 11.9807 107.777 11.3901 105.064 11.3901C102.351 11.3901 99.7421 11.9987 97.551 13.2157C95.3942 14.4328 93.7072 16.1719 92.4902 18.4332C91.3073 20.6603 90.7168 23.251 90.7168 26.2072C90.7168 29.1635 91.3253 31.7722 92.5424 34.0335C93.7954 36.2588 95.4986 37.9997 97.6555 39.251C99.8465 40.468 102.317 41.0766 105.064 41.0766C108.438 41.0766 111.256 40.2412 113.517 38.5722C115.812 36.8673 117.395 34.6942 118.264 32.0495H111.846C110.525 34.7284 108.263 36.0679 105.062 36.0679C102.837 36.0679 100.957 35.373 99.427 33.9813C97.8967 32.5896 97.0451 30.746 96.8705 28.4505H118.837C118.976 27.5809 119.046 26.6069 119.046 25.5285ZM96.9227 23.6507C97.2018 21.4236 98.0713 19.6683 99.5315 18.381C100.992 17.0595 102.749 16.3988 104.801 16.3988C107.062 16.3988 108.958 17.0595 110.489 18.381C112.019 19.7025 112.802 21.4597 112.836 23.6507H96.9227Z" fill="white"/>
<path d="M24.4235 11.3737V16.0169C23.4153 14.6954 22.0578 13.599 20.3529 12.7294C18.6839 11.8256 16.7179 11.3719 14.4566 11.3719C11.9523 11.3719 9.65682 11.9984 7.57018 13.2497C5.51775 14.4668 3.883 16.1897 2.66595 18.415C1.4831 20.6421 0.892578 23.1986 0.892578 26.0846C0.892578 28.9706 1.4831 31.5632 2.66595 33.8586C3.883 36.1199 5.51775 37.8933 7.57018 39.1806C9.62261 40.4336 11.8839 41.0583 14.354 41.0583C16.5811 41.0583 18.5633 40.6064 20.3025 39.7027C22.0416 38.7989 23.4153 37.6682 24.4235 36.3107V41.0583H30.4242V11.3701H24.4235V11.3737ZM23.1705 31.4101C22.3711 32.8702 21.3089 33.9847 19.9874 34.7498C18.6659 35.515 17.24 35.8985 15.7097 35.8985C14.1794 35.8985 12.7877 35.5168 11.432 34.7498C10.1105 33.9505 9.03209 32.8018 8.19671 31.3057C7.39734 29.8096 6.99586 28.0704 6.99586 26.0882C6.99586 24.106 7.39554 22.401 8.19671 20.9751C9.03209 19.515 10.1105 18.4186 11.432 17.6876C12.7535 16.9225 14.1794 16.539 15.7097 16.539C17.24 16.539 18.6659 16.9207 19.9874 17.6876C21.3089 18.4528 22.3693 19.5654 23.1705 21.0273C24.0058 22.4874 24.4235 24.2104 24.4235 26.1926C24.4235 28.1748 24.0058 29.914 23.1705 31.4101Z" fill="white"/>
</svg> 